<svg viewBox="0 0 800 367.25" xmlns="http://www.w3.org/2000/svg" xmlns:xlink="http://www.w3.org/1999/xlink"><filter id="a" color-interpolation-filters="sRGB" height="1.113" width="1.0834" x="-.041716" y="-.056514"><feGaussianBlur stdDeviation="7.088655"/></filter><filter id="b" color-interpolation-filters="sRGB" height="1.3065" width="1.3065" x="-.15324" y="-.15324"><feGaussianBlur stdDeviation="16.015677"/></filter><linearGradient id="c" gradientUnits="userSpaceOnUse" x1="-152.76" x2="1.93" xlink:href="#d" y1="14.29" y2="163.95"/><linearGradient id="d" gradientUnits="userSpaceOnUse" x1="165.32" x2="320.01" y1="151.05" y2="300.71"><stop offset="0" stop-color="#b8174c"/><stop offset="1" stop-color="#a900a9"/></linearGradient><filter id="e" color-interpolation-filters="sRGB" height="1.384" width="1.384" x="-.192" y="-.192"><feGaussianBlur stdDeviation="20.067549"/></filter><linearGradient id="f" gradientUnits="userSpaceOnUse" x1="115.61" x2="349.21" xlink:href="#d" y1="105.86" y2="339.46"/><filter id="g" color-interpolation-filters="sRGB" height="1.0354" width="1.0182" x="-.009083" y="-.017678"><feGaussianBlur stdDeviation=".94932635"/></filter><filter id="h" color-interpolation-filters="sRGB" height="1.0354" width="1.0182" x="-.009083" y="-.017678"><feGaussianBlur stdDeviation=".94930265"/></filter><filter id="i" color-interpolation-filters="sRGB" height="1.0283" width="1.0208" x="-.010418" y="-.014149"><feGaussianBlur stdDeviation="1.7572093"/></filter><filter id="j" color-interpolation-filters="sRGB" height="1.2175" width="1.1145" x="-.057239" y="-.10874"><feGaussianBlur stdDeviation="6.3676897"/></filter><g transform="translate(2357.8 -883.12)"><path d="m-2268.8 932.31c-29.422.034-48.857 2.4022-49.018 2.4219-.0007.0001-.1113.01-.1113.01-1.9208.221-1.6766 3.0824.2539 2.9746 0 0 106.98-5.0542 192.73 29.41 3.0595 13.089 11.139 33.152 15.912 43.816-6.4977 4.4595-13.468 8.9863-19.203 16.17-6.0198 7.5407-10.569 17.947-11.781 33.859-2.4573 32.277 25.225 60.533 59.463 61.404 31.749 1.6903 53.335 1.9234 79.613 15.543 12.272 6.7936 23.702 20.759 32.238 37.818 8.5411 17.068 14.208 37.205 15.225 56.195.095 1.8662 2.8387 1.9003 2.9805.037.01-.058 0-.1372 0-.1953 1.1026-14.541-1.0448-37.049-9.7617-58.461-7.3013-17.935-19.364-35.01-37.91-45.719 26.655 7.2789 41.914 20.807 50.686 33.168 10.065 14.183 11.551 26.806 11.543 26.736.2118 1.7846 2.8153 1.7434 2.9707-.047 0 0 1.3231-15.473-9.3535-32.521-10.677-17.048-33.342-35.683-80.594-42.617-11.969-1.7561-27.074-3.1058-42.381-3.1445-.01-.0001-.016-.0001-.023 0-37.042.4898-55.716-20.623-58.623-42.279-1.4537-10.828 1.0887-21.796 7.3789-30.295 6.2903-8.4988 16.301-14.584 30.094-15.662h.01c22.647-1.8687 50.269 10.379 77.432 23.018-.027 3.1387.2511 6.3048 2.5449 9.1719 1.5359 1.9198 4.3068 3.2538 7.127 4.5859 2.8195 1.3318 5.7216 2.5388 6.873 3.1992 2.6176 1.5025 11.349 7.1032 16.496 13.803.6606.8612 1.9903.7522 2.502-.2051.027-.05.8092-.9524 1.8418-1.8164s2.3429-1.8488 3.6191-2.7676c2.5524-1.8375 4.9688-3.4121 4.9688-3.4121 1.2578-.8198.6553-2.7746-.8457-2.7441 0 0-.3668.021-1.5391-.2031-1.1723-.2239-3.0361-.6946-5.6875-1.6855-2.4401-.9119-5.355-2.8865-7.6035-4.6719-1.1243-.8927-2.0919-1.7367-2.7754-2.3691-.082-.076-.1161-.1124-.1895-.1817.7145-.6428.8123-1.6703.668-2.3164-.1475-.6602-.4352-1.1955-.7578-1.7168-.6447-1.0417-1.4644-1.9704-2.0312-2.5371.082.082-.1678-.2098-.4199-.5781-.2532-.3696-.5789-.869-.9454-1.4453-.7329-1.1527-1.6317-2.6184-2.5058-4.0625-1.7483-2.8882-3.3259-5.5727-3.4785-5.8281 0 0-.3798-.7993-1.1133-1.2891-.1154-.077-.2409-.1374-.373-.1797-.828-.2662-1.4844-.2039-2.334-.1601-.8496.044-1.7923.1437-2.6856.2578-1.4943.1909-2.4216.3592-2.8262.4297-1.0103-.5329-8.9072-4.9072-11.809-13.82-.5353-1.6348-2.955-1.2177-2.9121.5019.016.5857-.8701 2.3306-.6778 4.9707-3.5086-2.1141-6.527-5.4732-9.1562-12.393-.4827-1.276-2.2828-1.2899-2.7852-.021-1.0069 2.5321-1.0677 4.6507-.8632 6.293-3.3327-1.5671-8.7895-5.0153-9.9785-11.869-.2551-1.4664-2.2636-1.698-2.8457-.3281-.9802 2.3107-1.0671 4.2231-.9024 5.7637-6.2107-2.6638-23.316-8.893-48.844-9.0312-4.927-.4525-8.8427-2.918-12.059-6.6152-3.2163-3.6977-5.659-8.6263-7.3887-13.73-1.7297-5.1042-2.7521-10.38-3.2148-14.732-.4627-4.3524-.2681-7.9507.055-8.9824.2156-.6878-.091-1.4314-.7285-1.7676 0 0-31.217-16.422-92.244-23.641-22.882-2.7067-44.211-3.5339-61.938-3.5137zm71.268 32.521c-9.2988.07-19.28.4167-29.768 1.1621-56.026 3.9823-112.43 23.557-112.43 23.557-1.8043.6227-.9969 3.3276.8535 2.8594 0 0 115.04-28.873 211.14-11.949.085.015.1714.023.2578.023 1.0058-.0004 1.7236-.9748 1.4258-1.9356l-2.5117-8.1055c-.1652-.5344-.6152-.9317-1.166-1.0293 0 0-27.515-4.8845-67.803-4.582h-.012zm68.311 17.264c-9.8882-.042-40.315 1.204-86.016 15.504-57.354 17.946-89.998 43.459-89.998 43.459-1.4384 1.1375.043 3.3653 1.6484 2.4785 0 0 84.923-47.363 180.56-50.051.9991-.029 1.6884-1.0119 1.375-1.9609l-2.748-8.3184c-.1907-.577-.712-.981-1.3184-1.0215 0 0-1.2177-.08-3.5-.09zm62.531-.1387c-1.4649.021-2.0262 1.9197-.8086 2.7344.088.059.1813.1077.2793.1465 26.227 10.663 48.975 24.757 66.609 44.131.016.017.032.034.049.051.3039.3035.7237.4615 1.1523.4336l4.2793-.2793c1.214-.08 1.8281-1.5003 1.0547-2.4394 0 0-24.778-30.028-72.021-44.662 0 0-.01-.01-.016-.01-.024-.01-.048-.017-.072-.025-.014 0-.027-.01-.041-.014-.1515-.048-.3098-.072-.4688-.07zm74.68 63.225c.858.1729 2.4764 3.3569 3.9629 5.6309.1305.1848.2634.3816.3887.5371 0 .014 0 .024.012.037.1679.2397.3353.488.4961.6875.081.4756.2162.7661-.8965.5371-.094-.4888-.2539-.6308-.2539-.6308s-2.6864-1.5969-3.5098-2.7305c-.8241-1.1335-.9681-3.1153-.5664-3.8672.097-.1681.2212-.229.3672-.2012z" filter="url(#a)" opacity=".2"/><g stroke-width=".55744" transform="translate(-2362.5 793.94)"><circle cx="293.07" cy="275.87" fill="#800080" filter="url(#b)" r="125.42"/><circle cx="282.31" cy="262.76" fill="url(#c)" filter="url(#e)" opacity=".59533" r="125.42"/><circle cx="282.31" cy="262.76" fill="url(#f)" r="125.42"/><path d="m407.61 259.3a125.42 125.42 0 0 1 -125.3 122.97 125.42 125.42 0 0 1 -125.3-121.96 125.42 125.42 0 0 0 -.1224 2.4536 125.42 125.42 0 0 0 125.42 125.42 125.42 125.42 0 0 0 125.42-125.42 125.42 125.42 0 0 0 -.12239-3.464z" filter="url(#g)" opacity=".1"/><path d="m282.31 137.34a125.42 125.42 0 0 0 -125.42 125.42 125.42 125.42 0 0 0 .1224 3.4582 125.42 125.42 0 0 1 125.3-122.97 125.42 125.42 0 0 1 125.3 121.96 125.42 125.42 0 0 0 .12239-2.4479 125.42 125.42 0 0 0 -125.42-125.42z" fill="#fff" filter="url(#h)" opacity=".1"/></g><path d="m-2268.8 932.31c-29.422.034-48.857 2.4022-49.018 2.4219-.0007.0001-.1113.01-.1113.01-1.9208.221-1.6766 3.0824.2539 2.9746 0 0 106.98-5.0542 192.73 29.41 3.0595 13.089 11.139 33.152 15.912 43.816-6.4977 4.4595-13.468 8.9863-19.203 16.17-6.0198 7.5407-10.569 17.947-11.781 33.859-2.4573 32.277 25.225 60.533 59.463 61.404 31.749 1.6903 53.335 1.9234 79.613 15.543 12.272 6.7936 23.702 20.759 32.238 37.818 8.5411 17.068 14.208 37.205 15.225 56.195.095 1.8662 2.8387 1.9003 2.9805.037.01-.058 0-.1372 0-.1953 1.1026-14.541-1.0448-37.049-9.7617-58.461-7.3013-17.935-19.364-35.01-37.91-45.719 26.655 7.2789 41.914 20.807 50.686 33.168 10.065 14.183 11.551 26.806 11.543 26.736.2118 1.7846 2.8153 1.7434 2.9707-.047 0 0 1.3231-15.473-9.3535-32.521-10.677-17.048-33.342-35.683-80.594-42.617-11.969-1.7561-27.074-3.1058-42.381-3.1445-.01-.0001-.016-.0001-.023 0-37.042.4898-55.716-20.623-58.623-42.279-1.4537-10.828 1.0887-21.796 7.3789-30.295 6.2903-8.4988 16.301-14.584 30.094-15.662h.01c22.647-1.8687 50.269 10.379 77.432 23.018-.027 3.1387.2511 6.3048 2.5449 9.1719 1.5359 1.9198 4.3068 3.2538 7.127 4.5859 2.8195 1.3318 5.7216 2.5388 6.873 3.1992 2.6176 1.5025 11.349 7.1032 16.496 13.803.6606.8612 1.9903.7522 2.502-.2051.027-.05.8092-.9524 1.8418-1.8164s2.3429-1.8488 3.6191-2.7676c2.5524-1.8375 4.9688-3.4121 4.9688-3.4121 1.2578-.8198.6553-2.7746-.8457-2.7441 0 0-.3668.021-1.5391-.2031-1.1723-.2239-3.0361-.6946-5.6875-1.6855-2.4401-.9119-5.355-2.8865-7.6035-4.6719-1.1243-.8927-2.0919-1.7367-2.7754-2.3691-.082-.076-.1161-.1124-.1895-.1817.7145-.6428.8123-1.6703.668-2.3164-.1475-.6602-.4352-1.1955-.7578-1.7168-.6447-1.0417-1.4644-1.9704-2.0312-2.5371.082.082-.1678-.2098-.4199-.5781-.2532-.3696-.5789-.869-.9454-1.4453-.7329-1.1527-1.6317-2.6184-2.5058-4.0625-1.7483-2.8882-3.3259-5.5727-3.4785-5.8281 0 0-.3798-.7993-1.1133-1.2891-.1154-.077-.2409-.1374-.373-.1797-.828-.2662-1.4844-.2039-2.334-.1601-.8496.044-1.7923.1437-2.6856.2578-1.4943.1909-2.4216.3592-2.8262.4297-1.0103-.5329-8.9072-4.9072-11.809-13.82-.5353-1.6348-2.955-1.2177-2.9121.5019.016.5857-.8701 2.3306-.6778 4.9707-3.5086-2.1141-6.527-5.4732-9.1562-12.393-.4827-1.276-2.2828-1.2899-2.7852-.021-1.0069 2.5321-1.0677 4.6507-.8632 6.293-3.3327-1.5671-8.7895-5.0153-9.9785-11.869-.2551-1.4664-2.2636-1.698-2.8457-.3281-.9802 2.3107-1.0671 4.2231-.9024 5.7637-6.2107-2.6638-23.316-8.893-48.844-9.0312-4.927-.4525-8.8427-2.918-12.059-6.6152-3.2163-3.6977-5.659-8.6263-7.3887-13.73-1.7297-5.1042-2.7521-10.38-3.2148-14.732-.4627-4.3524-.2681-7.9507.055-8.9824.2156-.6878-.091-1.4314-.7285-1.7676 0 0-31.217-16.422-92.244-23.641-22.882-2.7067-44.211-3.5339-61.938-3.5137zm71.268 32.521c-9.2988.07-19.28.4167-29.768 1.1621-56.026 3.9823-112.43 23.557-112.43 23.557-1.8043.6227-.9969 3.3276.8535 2.8594 0 0 115.04-28.873 211.14-11.949.085.015.1714.023.2578.023 1.0058-.0004 1.7236-.9748 1.4258-1.9356l-2.5117-8.1055c-.1652-.5344-.6152-.9317-1.166-1.0293 0 0-27.515-4.8845-67.803-4.582h-.012zm68.311 17.264c-9.8882-.042-40.315 1.204-86.016 15.504-57.354 17.946-89.998 43.459-89.998 43.459-1.4384 1.1375.043 3.3653 1.6484 2.4785 0 0 84.923-47.363 180.56-50.051.9991-.029 1.6884-1.0119 1.375-1.9609l-2.748-8.3184c-.1907-.577-.712-.981-1.3184-1.0215 0 0-1.2177-.08-3.5-.09zm62.531-.1387c-1.4649.021-2.0262 1.9197-.8086 2.7344.088.059.1813.1077.2793.1465 26.227 10.663 48.975 24.757 66.609 44.131.016.017.032.034.049.051.3039.3035.7237.4615 1.1523.4336l4.2793-.2793c1.214-.08 1.8281-1.5003 1.0547-2.4394 0 0-24.778-30.028-72.021-44.662 0 0-.01-.01-.016-.01-.024-.01-.048-.017-.072-.025-.014 0-.027-.01-.041-.014-.1515-.048-.3098-.072-.4688-.07zm74.68 63.225c.858.1729 2.4764 3.3569 3.9629 5.6309.1305.1848.2634.3816.3887.5371 0 .014 0 .024.012.037.1679.2397.3353.488.4961.6875.081.4756.2162.7661-.8965.5371-.094-.4888-.2539-.6308-.2539-.6308s-2.6864-1.5969-3.5098-2.7305c-.8241-1.1335-.9681-3.1153-.5664-3.8672.097-.1681.2212-.229.3672-.2012z" filter="url(#a)" opacity=".2"/><g fill="#fff" transform="translate(-2346.8 794.09)"><path d="m69.929 127.71c-29.464.0337-48.949 2.4206-48.949 2.4206s107.73-5.1706 194.03 29.769c2.9338 13.122 11.759 34.976 16.513 45.481-13.602 9.4041-28.94 18.249-31.328 49.612-2.3877 31.362 24.576 58.947 58.013 59.798 31.751 1.6913 53.688 1.9323 80.277 15.718 25.38 14.034 46.192 56.794 48.251 95.252 2.2244-28.534-8.4845-89.895-58.453-108.53 69.826 12.219 75.982 63.973 75.984 63.994 0 0 5.2056-59.754-88.677-73.531-11.899-1.7458-26.947-3.0899-42.168-3.1283-75.246.99487-77.989-86.786-21.288-91.218 23.499-1.9389 51.556 10.738 78.986 23.512-.10182 3.4068.0404 6.4339 2.2787 9.2314 2.2375 2.7966 10.832 5.8474 13.579 7.4233 2.7464 1.5764 11.545 7.1715 16.937 14.189 1.1692-2.1872 10.933-8.5432 10.933-8.5432s-2.3391.0507-7.781-1.9832c-5.4426-2.0339-11.9-8.1876-12.053-8.5432-.15246-.35625-.25501-.91601 1.0169-1.1705.96572-.81305-1.2209-3.4575-2.1873-4.4232-.96572-.96636-7.4247-11.95-7.5769-12.204-.15245-.25447-.20376-.50931-.66105-.81465-1.4244-.45805-7.6799.66106-7.6799.66106s-9.6211-4.7252-12.937-14.913c.0482 1.7844-1.6497 3.734 0 7.8335-5.0162-2.122-9.325-5.7416-12.723-14.685-2.0227 5.0868 0 8.3215 0 8.3215s-11.811-3.3016-13.701-14.195c-2.0742 4.8902 0 7.8316 0 7.8316s-19.258-10.048-51.255-10.194c-21.422-1.965-25.882-39.65-23.897-45.994 0 0-30.899-16.285-91.723-23.479-22.809-2.6982-44.081-3.5238-61.76-3.5036zm71.276 32.521c-9.2697.0699-19.22.41577-29.674 1.1588-55.751 3.9628-112.04 23.477-112.04 23.477s115.18-28.98 211.77-11.971h.002l-2.512-8.1057s-27.373-4.5594-67.542-4.5594zm68.293 17.263c-9.75-.0412-40.02 1.1848-85.564 15.436-57.124 17.874-89.522 43.21-89.522 43.21s85.141-47.539 181.24-50.24l-2.7492-8.3176s-1.1564-.0779-3.4064-.0875zm62.559-.13932c26.38 10.723 49.34 24.931 67.165 44.514l.002.002 4.2794-.27998s-24.518-29.746-71.446-44.236zm74.662 61.731c.85796.17286 2.4779 3.3567 3.9644 5.6306.13054.18477.26356.38112.38886.53662.002.0138.003.0234.006.037.16796.23967.33693.4887.49774.68826.0812.47558.21641.76558-.89631.53663-.0936-.48886-.25471-.62995-.25471-.62995s-2.686-1.5982-3.5094-2.7317c-.82408-1.1335-.96948-3.1153-.56774-3.8672.0978-.16967.2236-.23004.37137-.20027z" filter="url(#i)" opacity=".5"/><path d="m69.929 127.71c-29.464.0337-48.949 2.4206-48.949 2.4206s107.73-5.1706 194.03 29.769c2.9338 13.122 11.759 34.976 16.513 45.481-13.602 9.4041-28.94 18.249-31.328 49.612-2.3877 31.362 24.576 58.947 58.013 59.798 31.751 1.6913 53.688 1.9323 80.277 15.718 25.38 14.034 46.192 56.794 48.251 95.252 2.2244-28.534-8.4845-89.895-58.453-108.53 69.826 12.219 75.982 63.973 75.984 63.994 0 0 5.2056-59.754-88.677-73.531-11.899-1.7458-26.947-3.0899-42.168-3.1283-75.246.99487-77.989-86.786-21.288-91.218 23.499-1.9389 51.556 10.738 78.986 23.512-.10182 3.4068.0404 6.4339 2.2787 9.2314 2.2375 2.7966 10.832 5.8474 13.579 7.4233 2.7464 1.5764 11.545 7.1715 16.937 14.189 1.1692-2.1872 10.933-8.5432 10.933-8.5432s-2.3391.0507-7.781-1.9832c-5.4426-2.0339-11.9-8.1876-12.053-8.5432-.15246-.35625-.25501-.91601 1.0169-1.1705.96572-.81305-1.2209-3.4575-2.1873-4.4232-.96572-.96636-7.4247-11.95-7.5769-12.204-.15245-.25447-.20376-.50931-.66105-.81465-1.4244-.45805-7.6799.66106-7.6799.66106s-9.6211-4.7252-12.937-14.913c.0482 1.7844-1.6497 3.734 0 7.8335-5.0162-2.122-9.325-5.7416-12.723-14.685-2.0227 5.0868 0 8.3215 0 8.3215s-11.811-3.3016-13.701-14.195c-2.0742 4.8902 0 7.8316 0 7.8316s-19.258-10.048-51.255-10.194c-21.422-1.965-25.882-39.65-23.897-45.994 0 0-30.899-16.285-91.723-23.479-22.809-2.6982-44.081-3.5238-61.76-3.5036zm71.276 32.521c-9.2697.0699-19.22.41577-29.674 1.1588-55.751 3.9628-112.04 23.477-112.04 23.477s115.18-28.98 211.77-11.971h.002l-2.512-8.1057s-27.373-4.5594-67.542-4.5594zm68.293 17.263c-9.75-.0412-40.02 1.1848-85.564 15.436-57.124 17.874-89.522 43.21-89.522 43.21s85.141-47.539 181.24-50.24l-2.7492-8.3176s-1.1564-.0779-3.4064-.0875zm62.559-.13932c26.38 10.723 49.34 24.931 67.165 44.514l.002.002 4.2794-.27998s-24.518-29.746-71.446-44.236zm74.662 61.731c.85796.17286 2.4779 3.3567 3.9644 5.6306.13054.18477.26356.38112.38886.53662.002.0138.003.0234.006.037.16796.23967.33693.4887.49774.68826.0812.47558.21641.76558-.89631.53663-.0936-.48886-.25471-.62995-.25471-.62995s-2.686-1.5982-3.5094-2.7317c-.82408-1.1335-.96948-3.1153-.56774-3.8672.0978-.16967.2236-.23004.37137-.20027z"/></g></g><g fill="#800080"><path d="m129.28 188.1c-3.7333.0302-7.01 2.3867-8.25 5.8965-.4054 1.1412-.52343 2.2972-.52343 3.4941v117.65c.13795 4.9023 3.9725 8.7242 8.8301 8.7363 10.182.0151 115.6-.0351 115.6-.0351l-.0389-9.1055h-115.03c-.16214-.97807-.1217-116.12.0378-116.65.9369-.13078 247.48-.084 248.02.043.14892.88803.10659 116.04-.0567 116.65h-19.721v9.1055s.80357.0007 1.1719.0155h19.436c3.6926-.0378 6.9644-2.3528 8.2227-5.834.40535-1.1089.52146-2.2528.52146-3.4219v-117.87c-.0775-3.894-2.7276-7.3145-6.4766-8.3496l-.008-.008c-.99273-.2657-1.984-.31446-3.0098-.31446zm114.81 34.545c-.0771.14816-.13342.25614-.16403.35743-8.3559 22.407-16.704 44.823-25.057 67.227-.0378.0378-.0378.10533-.0378.14842v.0723c0 .0302.0378.0425.0431.0762h11.471l.0227.004c.0884-.2555.19049-.47501.26759-.71289 1.7761-5.0458 3.5531-10.083 5.334-15.133.29631-.81169.59165-1.6283.85939-2.4434.10583-.34016.27779-.5177.6367-.47461.11603.0151.25096 0 .36926 0h25.072c2.2664 6.2792 4.5175 12.512 6.7598 18.746h11.736c-8.4665-22.684-16.898-45.278-25.312-67.867zm-44.115.22462v.004c-.65409 0-1.0665.18977-1.4981.69726-8.7391 10.349-17.499 20.7-26.258 31.037-.11603.13229-.26722.25172-.51954.48438v-25.746c0-2.1309.0378-4.2684 0-6.4004h-10.99v67.508c.8725.15307 10.417.12003 11.006-.0391v-.85938l-.0302-.004v-23.547c0-.5311.14815-.90352.58204-1.2402 1.8186-1.4381 3.6136-2.9186 5.4082-4.3867.17915-.13304.353-.25096.57615-.41406.19351.2502.35565.45469.50589.67968 3.0506 4.4012 6.1038 8.7976 9.1523 13.191 3.7408 5.4128 7.4876 10.802 11.221 16.189.2075.31257.39772.54883.85742.54883 3.9307-.0151 7.8574-.0136 11.783-.0136.13002 0 .26381-.043.4707-.0898-8.6926-12.66-17.35-25.23-26.033-37.879 1.747-2.028 3.4369-3.9804 5.125-5.9805 1.6925-1.9582 3.3786-3.9227 5.0684-5.8945 1.6872-1.9668 3.363-3.9375 5.0547-5.9063 1.6882-1.9734 3.3799-3.9423 5.0488-5.9102 1.6806-1.953 3.3474-3.9068 5.1289-6.0137h-.99024c-3.5572 0-7.1122.0223-10.67-.0155zm99.916.0723-10.855.002c-.18331.84408-.1372 67.033.0389 67.588h39.535v-9.4043h-19.07c-1.6032 0-3.2202.0151-4.8164 0-1.5733-.0151-3.1396.0582-4.7715-.0351v-52.926l-.0113-.0117c0-1.7482.0661-3.4813-.0488-5.2129zm36.238.0234v67.549h10.949c.0378-.11338.0646-.17522.0646-.25194v-66.902h-.008c0-.1047 0-.19193-.0378-.30078 0-.0302-.0378-.0378-.0378-.0566 0-.0151-.0431-.037-.0431-.037zm-86.16 9.4551c.11603.17726.20863.28532.24038.40234 1.8359 6.8551 4.3441 13.506 6.623 20.23.94666 2.7979 1.9288 5.5778 2.8926 8.377.0733.25059.14552.50082.23433.81055h-19.693c.0881-.29178.1629-.54208.24794-.79297 2.3114-6.693 4.6559-13.356 6.9082-20.066.90372-2.6971 1.5841-5.4799 2.3535-8.2305.065-.20825.10583-.41669.19352-.73046zm4.3184 77.387v18.574h3.9277v-6.6074h1.6914c1.8037 0 3.225-.28705 4.2656-.85937 1.058-.57232 1.8128-1.3272 2.2637-2.2637.45093-.95387.67578-1.9677.67578-3.043 0-1.8037-.55412-3.217-1.664-4.2402-1.0926-1.0406-2.8371-1.5606-5.2304-1.5606zm16.207 0v11.967c0 2.0638.64044 3.7281 1.9238 4.9941 1.2834 1.2487 3.1564 1.8731 5.6191 1.8731 1.7344 0 3.1657-.29518 4.293-.88479 1.1446-.60699 1.9938-1.4221 2.5488-2.4453.57233-1.0406.85935-2.2029.85935-3.4863v-12.018h-3.9277v11.342c0 1.4395-.29518 2.4974-.88475 3.1738-.57233.67638-1.4998 1.0137-2.7832 1.0137-1.2314 0-2.1608-.3112-2.7852-.93554-.62434-.62435-.93555-1.7004-.93555-3.2266v-11.367zm19.797 0v18.574h3.9278v-7.1289h2.1074l4.4219 7.1289h4.3711l-5.4629-8.0918c.607-.2775 1.1711-.63283 1.6914-1.0664.53764-.45092.96125-.98698 1.2734-1.6113.32958-.64169.49414-1.3885.49414-2.2383 0-1.873-.60631-3.2683-1.8203-4.1875-1.1967-.91918-3.0616-1.3789-5.5937-1.3789zm17.17 0v18.574h3.9277v-6.6074h1.6914c1.8037 0 3.225-.28705 4.2656-.85937 1.0579-.57232 1.8128-1.3272 2.2637-2.2637.45094-.95387.67578-1.9677.67578-3.043 0-1.8037-.55411-3.217-1.664-4.2402-1.0926-1.0406-2.8371-1.5606-5.2305-1.5606zm16.336 0v18.574h11.473v-3.252h-7.5449v-15.322zm14.699 0v18.574h10.691v-3.252h-6.7636v-4.7871h6.2949v-3.2246h-6.2949v-4.0859h6.7636v-3.2246zm-80.281 3.2246h1.7949c2.0812 0 3.1211.90336 3.1211 2.707 0 .98856-.3292 1.7073-.98827 2.1582-.64173.43358-1.517.65039-2.627.65039h-1.3008zm36.004 0h1.1972c1.2834 0 2.219.19072 2.8086.57227.60703.3642.91014.98855.91014 1.873 0 .84981-.28497 1.4922-.85742 1.9258-.55498.43357-1.4824.65039-2.7832.65039h-1.2754zm17.17 0h1.7949c2.0812 0 3.1211.90336 3.1211 2.707 0 .98856-.3292 1.7073-.98831 2.1582-.64169.43358-1.517.65039-2.6269.65039h-1.3008z" filter="url(#j)" opacity=".5" stroke-width="3.7795" transform="matrix(.69855 0 0 .69855 398.2 -6.0968)"/><path d="m488.52 122.5c-2.6078.0211-4.8969 1.6672-5.7631 4.119-.28318.79714-.36565 1.6046-.36565 2.4408v82.185c.0965 3.4246 2.775 6.0944 6.1682 6.1028 7.1126.0101 80.752-.0246 80.752-.0246l-.0272-6.3606h-80.355c-.11316-.68323-.085-81.116.0266-81.486.65445-.0913 172.87-.0587 173.26.0302.10396.62035.0745 81.06-.0397 81.486h-13.776v6.3606s.56134.00051.81864.0101h13.577c2.5795-.0266 4.865-1.6436 5.744-4.0754.28317-.7746.36428-1.5737.36428-2.3903v-82.338c-.0542-2.7201-1.9054-5.1095-4.5242-5.8327l-.006-.006c-.69346-.18569-1.3859-.21966-2.1026-.21966zm80.201 24.132c-.0539.10353-.0933.17903-.11445.24969-5.837 15.653-11.669 31.311-17.503 46.961-.0266.0266-.0266.0736-.0266.10367v.0505c0 .0211.0266.0298.0301.0532h8.0131l.0161.001c.0617-.17839.13315-.3318.18688-.49796 1.2407-3.5248 2.482-7.0435 3.7262-10.571.20698-.56697.41331-1.1374.60033-1.7068.0739-.23763.19396-.36163.44475-.33155.0812.0101.17536 0 .25795 0h17.515c1.5832 4.3864 3.1558 8.7403 4.7221 13.095h8.1982c-5.9144-15.845-11.804-31.628-17.681-47.407zm-30.817.15697v.001c-.45691 0-.745.13257-1.0465.48707-6.1047 7.2294-12.224 14.46-18.342 21.68-.0812.0923-.1867.17576-.36292.33837v-17.984c0-1.4886.0263-2.9816 0-4.4709h-7.6771v47.158c.60949.10712 7.2769.0837 7.6882-.0273v-.60031l-.0211-.001v-16.448c0-.371.10352-.63117.40657-.86633 1.2704-1.0046 2.5242-2.0389 3.7779-3.0644.12524-.0929.2466-.17537.40246-.28924.13502.17478.24847.31763.3534.47479 2.131 3.0744 4.2638 6.1457 6.3934 9.2145 2.6132 3.7811 5.2305 7.5458 7.8385 11.309.14489.21834.27782.38335.59897.38335 2.7457-.0101 5.4887-.0101 8.2311-.0101.0909 0 .18427-.03.32882-.0625-6.0723-8.8437-12.12-17.624-18.185-26.461 1.2204-1.4166 2.4009-2.7805 3.5801-4.1777 1.1823-1.3679 2.3601-2.7402 3.5406-4.1176 1.1786-1.3739 2.3492-2.7505 3.5309-4.1259 1.1793-1.3785 2.3611-2.7538 3.5269-4.1286 1.174-1.3643 2.3384-2.7292 3.5828-4.2008h-.69172c-2.4848 0-4.9682.0161-7.4535-.0101zm69.796.0505-7.5827.001c-.12811.58964-.0958 46.826.0272 47.213h27.618v-6.5694h-13.321c-1.1199 0-2.2495.0101-3.3645 0-1.0991-.0101-2.1931.0407-3.3332-.0246v-36.972l-.006-.006c0-1.2212.046-2.4318-.0339-3.6414zm25.314.0161v47.186h7.6485c.0266-.0792.0453-.12236.0453-.17598v-46.735h-.006c0-.0732 0-.13401-.0266-.21012 0-.0211-.0264-.0266-.0264-.0397 0-.0101-.0301-.026-.0301-.026zm-60.187 6.6048c.0812.12394.1457.19924.16789.28103 1.2825 4.7887 3.0345 9.4348 4.6265 14.132.66129 1.9545 1.3474 3.8963 2.0206 5.8518.0512.17492.10166.34984.16366.56618h-13.757c.0615-.20382.11388-.37866.17316-.55394 1.6147-4.6754 3.2524-9.3299 4.8257-14.017.63132-1.8841 1.1066-3.828 1.644-5.7494.0454-.14537.0741-.29107.13502-.51027zm3.0166 54.059v12.975h2.7436v-4.6157h1.1815c1.26 0 2.2529-.20044 2.9797-.60028.73906-.39982 1.2663-.92715 1.5813-1.5813.31499-.66634.47209-1.3746.47209-2.1258 0-1.26-.3871-2.2472-1.1624-2.9619-.76321-.72692-1.9818-1.0901-3.6537-1.0901zm11.321 0v8.3596c0 1.4417.44738 2.6043 1.3439 3.4886.89652.87229 2.2049 1.3085 3.9252 1.3085 1.2116 0 2.2114-.20619 2.999-.61807.79955-.42401 1.3927-.99341 1.7805-1.7082.39979-.7269.6003-1.5388.6003-2.4354v-8.3952h-2.7438v7.923c0 1.0056-.20619 1.7446-.61804 2.2171-.39978.47251-1.0477.70812-1.9442.70812-.86019 0-1.5094-.21739-1.9456-.65352-.43614-.43612-.6535-1.1878-.6535-2.254v-7.9403zm13.829 0v12.975h2.7438v-4.98h1.4721l3.0889 4.98h3.0534l-3.8162-5.6525c.42403-.19375.81809-.44207 1.1815-.74494.37556-.31498.67148-.68945.88954-1.1256.23021-.44824.34518-.96994.34518-1.5636 0-1.3084-.42353-2.283-1.2716-2.9252-.83596-.64214-2.1386-.96324-3.9074-.96324zm11.994 0v12.975h2.7436v-4.6157h1.1815c1.26 0 2.2529-.20044 2.9797-.60028.73899-.39982 1.2663-.92715 1.5813-1.5813.31498-.66634.47205-1.3746.47205-2.1258 0-1.26-.38707-2.2472-1.1624-2.9619-.76325-.72692-1.9818-1.0901-3.6538-1.0901zm11.411 0v12.975h8.0145v-2.2716h-5.2706v-10.703zm10.268 0v12.975h7.4681v-2.2716h-4.7247v-3.344h4.3974v-2.2525h-4.3974v-2.8542h4.7247v-2.2526zm-56.08 2.2526h1.2539c1.4538 0 2.1803.63105 2.1803 1.891 0 .69058-.22996 1.1927-.69035 1.5076-.4483.30287-1.0597.45433-1.835.45433h-.90868zm25.15 0h.83632c.89651 0 1.5501.13329 1.962.39975.42407.25444.6358.69058.6358 1.3084 0 .59366-.19905 1.0424-.59896 1.3453-.38768.30286-1.0355.45433-1.9442.45433h-.89095zm11.994 0h1.2538c1.4538 0 2.1803.63105 2.1803 1.891 0 .69058-.22994 1.1927-.69037 1.5076-.44826.30287-1.0597.45433-1.835.45433h-.90869z" stroke-width="2.6402"/></g></svg>